<?xml version="1.0" encoding="utf-8"?>
<!-- Generator: Adobe Illustrator 28.0.0, SVG Export Plug-In . SVG Version: 6.00 Build 0)  -->
<svg version="1.1" id="Layer_1" xmlns="http://www.w3.org/2000/svg" xmlns:xlink="http://www.w3.org/1999/xlink" x="0px" y="0px"
	 viewBox="0 0 800 800" style="enable-background:new 0 0 800 800;" xml:space="preserve">
<style type="text/css">
	.st0{fill:url(#SVGID_1_);}
	.st1{fill:url(#SVGID_00000006690454743836011350000007930777614596889737_);}
	.st2{fill:url(#SVGID_00000031202745067071901090000009202397249475607724_);}
	.st3{fill:url(#SVGID_00000085250256553429097830000003748163301365285005_);}
	.st4{fill:url(#SVGID_00000132064170766696394850000007012506130689279123_);}
	.st5{fill:url(#SVGID_00000138537660146221339720000007542679604904760960_);}
	.st6{fill:url(#SVGID_00000176757657469344989070000010297927732827602351_);}
	.st7{fill:url(#SVGID_00000075855256095921517210000008607924453094323600_);}
	.st8{fill:url(#SVGID_00000068679649360076436200000016132095818925094286_);}
	.st9{fill:url(#SVGID_00000025408584801046149280000014191071129323081388_);}
	.st10{fill:url(#SVGID_00000097479023924314555180000008497046330319206565_);}
	.st11{fill:url(#SVGID_00000164475410873916946880000012952969392818728353_);}
	.st12{fill:none;stroke:#FFFFFF;stroke-width:11.3386;stroke-miterlimit:10;}
	.st13{fill:#50B855;}
	.st14{font-family:'Montserrat-Bold';}
	.st15{font-size:119px;}
	.st16{font-family:'Montserrat-Light';}
	.st17{font-size:80.6244px;}
	.st18{letter-spacing:17;}
	.st19{font-size:23.6875px;}
	.st20{fill:none;stroke:#000000;stroke-width:0.7087;stroke-miterlimit:10;}
</style>
<g>
	<linearGradient id="SVGID_1_" gradientUnits="userSpaceOnUse" x1="1129.1083" y1="-33.2282" x2="949.0767" y2="236.0371">
		<stop  offset="0" style="stop-color:#FFFFFF"/>
		<stop  offset="0.0859" style="stop-color:#C5CCE4"/>
		<stop  offset="0.1704" style="stop-color:#94A1CD"/>
		<stop  offset="0.2498" style="stop-color:#6E80BB"/>
		<stop  offset="0.3227" style="stop-color:#5368AE"/>
		<stop  offset="0.3869" style="stop-color:#4259A7"/>
		<stop  offset="0.4355" style="stop-color:#3C54A4"/>
		<stop  offset="1" style="stop-color:#292663"/>
	</linearGradient>
	<path class="st0" d="M1118.37,56.83c-5.93,4.43-11.64,8.95-17.18,13.53c-26.32-14.59-17.26-9.57-40.33-22.36
		c-34.95,19.68-79.42,44.71-116.22,65.43c-0.24,62.75,14.55,128.29,53.59,178.34c4.25-75.06,45.54-148.98,93.87-206.37
		C1103.32,72.09,1113.61,61.35,1118.37,56.83z M980.9,224.84c-11.41-29.97-17.76-64.14-18.61-101.2l98.63-55.53l26.09,14.47
		C1035.28,129.09,1002.01,180.85,980.9,224.84z"/>
	
		<linearGradient id="SVGID_00000157298649731060066660000003871696443976917170_" gradientUnits="userSpaceOnUse" x1="1218.8826" y1="-16.1334" x2="1005.1917" y2="329.8428">
		<stop  offset="0" style="stop-color:#FFFFFF"/>
		<stop  offset="4.556144e-03" style="stop-color:#F4F4F4"/>
		<stop  offset="0.0224" style="stop-color:#CDCECF"/>
		<stop  offset="0.0416" style="stop-color:#ACADAF"/>
		<stop  offset="0.0621" style="stop-color:#929294"/>
		<stop  offset="0.0844" style="stop-color:#7D7E80"/>
		<stop  offset="0.1093" style="stop-color:#6E6F72"/>
		<stop  offset="0.1391" style="stop-color:#66676A"/>
		<stop  offset="0.1863" style="stop-color:#636467"/>
		<stop  offset="0.2492" style="stop-color:#5D5E60"/>
		<stop  offset="0.4618" style="stop-color:#4C4B4D"/>
		<stop  offset="0.6628" style="stop-color:#3F3E40"/>
		<stop  offset="0.8459" style="stop-color:#383738"/>
		<stop  offset="0.9946" style="stop-color:#363435"/>
	</linearGradient>
	<path style="fill:url(#SVGID_00000157298649731060066660000003871696443976917170_);" d="M1110.11,95.38
		c14.97-26,30.87-46.65,38.83-55.07c-76.28,67.09-121.64,167.29-136.62,267.7c11.71,12.11,25.36,22.97,40.58,31.57
		C1047.97,250.53,1069.35,166.16,1110.11,95.38z"/>
	
		<linearGradient id="SVGID_00000085242883817967008070000007820692442109019323_" gradientUnits="userSpaceOnUse" x1="1196.9949" y1="14.4935" x2="1096.0208" y2="275.1482">
		<stop  offset="0" style="stop-color:#FFFFFF"/>
		<stop  offset="0.0859" style="stop-color:#C5CCE4"/>
		<stop  offset="0.1704" style="stop-color:#94A1CD"/>
		<stop  offset="0.2498" style="stop-color:#6E80BB"/>
		<stop  offset="0.3227" style="stop-color:#5368AE"/>
		<stop  offset="0.3869" style="stop-color:#4259A7"/>
		<stop  offset="0.4355" style="stop-color:#3C54A4"/>
		<stop  offset="1" style="stop-color:#292663"/>
	</linearGradient>
	<path style="fill:url(#SVGID_00000085242883817967008070000007820692442109019323_);" d="M1130.75,86.76
		c4.75-12.36,8.19-19.41,8.19-19.41c-54.33,76.74-72,177.31-64.33,271.13c75.69-44.04,106.46-135.95,106.37-223.88
		C1159.35,102.61,1164.7,105.58,1130.75,86.76z M1107.75,288.04c-13.82-72.78,3.19-143.52,16.99-184.55l38.55,21.38
		C1161.55,191.08,1142.24,248.01,1107.75,288.04z"/>
</g>
<g>
	
		<linearGradient id="SVGID_00000054980758509706385120000002621361447365559456_" gradientUnits="userSpaceOnUse" x1="988.3015" y1="422.3062" x2="1234.7861" y2="80.5732">
		<stop  offset="0" style="stop-color:#FFFFFF"/>
		<stop  offset="0.0859" style="stop-color:#C5CCE4"/>
		<stop  offset="0.1704" style="stop-color:#94A1CD"/>
		<stop  offset="0.2498" style="stop-color:#6E80BB"/>
		<stop  offset="0.3227" style="stop-color:#5368AE"/>
		<stop  offset="0.3869" style="stop-color:#4259A7"/>
		<stop  offset="0.4355" style="stop-color:#3C54A4"/>
		<stop  offset="1" style="stop-color:#292663"/>
	</linearGradient>
	<path style="fill:url(#SVGID_00000054980758509706385120000002621361447365559456_);" d="M1120.58,361.81
		c-42.6-56.28-51.55-125.63-51.45-174.46l115.05-64.77l40.46,22.43c1.17-0.97,2.54-2.1,4.46-3.65
		C1174.75,200.22,1126.22,281.42,1120.58,361.81z M1084.43,196.18c0.88,37.43,6.56,70.43,19.67,104.85
		c28.25-58.86,63.36-105.1,108.25-145.46l-28.11-15.58L1084.43,196.18z"/>
</g>
<g>
	
		<linearGradient id="SVGID_00000005238580537317996510000007383306377770225588_" gradientUnits="userSpaceOnUse" x1="1104.2842" y1="439.7194" x2="1324.5503" y2="87.294">
		<stop  offset="0" style="stop-color:#FFFFFF"/>
		<stop  offset="4.556144e-03" style="stop-color:#F4F4F4"/>
		<stop  offset="0.0224" style="stop-color:#CDCECF"/>
		<stop  offset="0.0416" style="stop-color:#ACADAF"/>
		<stop  offset="0.0621" style="stop-color:#929294"/>
		<stop  offset="0.0844" style="stop-color:#7D7E80"/>
		<stop  offset="0.1093" style="stop-color:#6E6F72"/>
		<stop  offset="0.1391" style="stop-color:#66676A"/>
		<stop  offset="0.1863" style="stop-color:#636467"/>
		<stop  offset="0.2492" style="stop-color:#5D5E60"/>
		<stop  offset="0.4618" style="stop-color:#4C4B4D"/>
		<stop  offset="0.6628" style="stop-color:#3F3E40"/>
		<stop  offset="0.8459" style="stop-color:#383738"/>
		<stop  offset="0.9946" style="stop-color:#363435"/>
	</linearGradient>
	<path style="fill:url(#SVGID_00000005238580537317996510000007383306377770225588_);" d="M1174.94,410.72
		c-13.74-7.99-26.53-18.04-38.05-29.88c14.08-93.67,54.82-187.73,122.93-254.17C1204.19,199.49,1169.38,300.98,1174.94,410.72z"/>
</g>
<g>
	
		<linearGradient id="SVGID_00000130636696933519373480000018118422235723229371_" gradientUnits="userSpaceOnUse" x1="1151.0193" y1="447.5298" x2="1325.3788" y2="126.8856">
		<stop  offset="0" style="stop-color:#292663"/>
		<stop  offset="0.5645" style="stop-color:#3C54A4"/>
		<stop  offset="0.6131" style="stop-color:#4259A7"/>
		<stop  offset="0.6773" style="stop-color:#5368AE"/>
		<stop  offset="0.7502" style="stop-color:#6E80BB"/>
		<stop  offset="0.8296" style="stop-color:#94A1CD"/>
		<stop  offset="0.9141" style="stop-color:#C5CCE4"/>
		<stop  offset="1" style="stop-color:#FFFFFF"/>
	</linearGradient>
	<path style="fill:url(#SVGID_00000130636696933519373480000018118422235723229371_);" d="M1198.96,409.75
		c-7.67-98.11,12.53-189.04,57.08-257.89c-1.29,3.14-2.3,5.71-3.43,8.66l50.52,28.01C1303.07,275.13,1272.66,365.78,1198.96,409.75z
		 M1230.38,363.88c39.76-46.14,55.84-104.58,57.43-166.47l-40.41-22.4C1226.52,237.05,1218.37,300.62,1230.38,363.88z"/>
</g>
<g>
	<g>
		
			<linearGradient id="SVGID_00000115499975392365943840000014118635248947636624_" gradientUnits="userSpaceOnUse" x1="992.0945" y1="539.5036" x2="1007.7498" y2="356.3402">
			<stop  offset="0" style="stop-color:#FFFFFF"/>
			<stop  offset="0.0859" style="stop-color:#C5CCE4"/>
			<stop  offset="0.1704" style="stop-color:#94A1CD"/>
			<stop  offset="0.2498" style="stop-color:#6E80BB"/>
			<stop  offset="0.3227" style="stop-color:#5368AE"/>
			<stop  offset="0.3869" style="stop-color:#4259A7"/>
			<stop  offset="0.4355" style="stop-color:#3C54A4"/>
			<stop  offset="1" style="stop-color:#292663"/>
		</linearGradient>
		<path style="fill:url(#SVGID_00000115499975392365943840000014118635248947636624_);" d="M944.35,523.06
			c-4.56-20.54-6.83-41.41-7.36-63.88l99.81-56.19l28.11,15.58c-33.9,30.49-62.23,64.33-86.23,104.43
			c7.46-0.01,14.92-0.02,22.38-0.02c20.34-43.96,49.51-84.95,80.61-118.63c-1.92,1.55-3.29,2.68-4.46,3.65l-40.46-22.43
			L921.7,450.34c-0.04,21.28,1.63,46.46,7.06,72.76C933.96,523.08,939.15,523.07,944.35,523.06z"/>
	</g>
	<g>
		
			<linearGradient id="SVGID_00000070832342801505399740000011010519428539692452_" gradientUnits="userSpaceOnUse" x1="1053.9534" y1="548.1876" x2="1082.1326" y2="361.8924">
			<stop  offset="0" style="stop-color:#FFFFFF"/>
			<stop  offset="4.556144e-03" style="stop-color:#F4F4F4"/>
			<stop  offset="0.0224" style="stop-color:#CDCECF"/>
			<stop  offset="0.0416" style="stop-color:#ACADAF"/>
			<stop  offset="0.0621" style="stop-color:#929294"/>
			<stop  offset="0.0844" style="stop-color:#7D7E80"/>
			<stop  offset="0.1093" style="stop-color:#6E6F72"/>
			<stop  offset="0.1391" style="stop-color:#66676A"/>
			<stop  offset="0.1863" style="stop-color:#636467"/>
			<stop  offset="0.2492" style="stop-color:#5D5E60"/>
			<stop  offset="0.4618" style="stop-color:#4C4B4D"/>
			<stop  offset="0.6628" style="stop-color:#3F3E40"/>
			<stop  offset="0.8459" style="stop-color:#383738"/>
			<stop  offset="0.9946" style="stop-color:#363435"/>
		</linearGradient>
		<path style="fill:url(#SVGID_00000070832342801505399740000011010519428539692452_);" d="M1045.44,522.98
			c15.24-51,39.54-97.44,66.94-133.31c-38.3,37.36-67.94,83.46-89.06,133.31C1030.69,522.97,1038.07,522.97,1045.44,522.98z"/>
	</g>
	<g>
		
			<linearGradient id="SVGID_00000103977743705591733030000000518449818695457707_" gradientUnits="userSpaceOnUse" x1="1110.9849" y1="405.139" x2="1107.8536" y2="556.9933">
			<stop  offset="0" style="stop-color:#292663"/>
			<stop  offset="0.4946" style="stop-color:#3C54A4"/>
			<stop  offset="0.7473" style="stop-color:#9CA8D1"/>
			<stop  offset="1" style="stop-color:#FFFFFF"/>
		</linearGradient>
		<path style="fill:url(#SVGID_00000103977743705591733030000000518449818695457707_);" d="M1062.81,522.98
			c5.78,0,11.56,0,17.33,0.01c3.55-28.53,10.38-56.91,19.82-84.99l40.41,22.4c-0.54,20.99-2.84,42.1-7.29,62.62
			c5.16,0,10.31,0.01,15.47,0.01c4.69-22.49,7.13-46.46,7.15-71.52l-50.52-28.01c1.13-2.94,2.14-5.52,3.43-8.66
			C1088.02,446.67,1072.65,483.21,1062.81,522.98z"/>
	</g>
</g>
<g>
	<g>
		<g>
			
				<linearGradient id="SVGID_00000171705170511981327530000004822251899753487782_" gradientUnits="userSpaceOnUse" x1="401.9421" y1="118.2359" x2="401.9421" y2="376.7157">
				<stop  offset="0" style="stop-color:#FFFFFF"/>
				<stop  offset="0.0859" style="stop-color:#C5CCE4"/>
				<stop  offset="0.1704" style="stop-color:#94A1CD"/>
				<stop  offset="0.2498" style="stop-color:#6E80BB"/>
				<stop  offset="0.3227" style="stop-color:#5368AE"/>
				<stop  offset="0.3869" style="stop-color:#4259A7"/>
				<stop  offset="0.4355" style="stop-color:#3C54A4"/>
				<stop  offset="1" style="stop-color:#292663"/>
			</linearGradient>
			<path style="fill:url(#SVGID_00000171705170511981327530000004822251899753487782_);" d="M401.94,439.01
				c-2.24,0-4.48-0.62-6.48-1.86c-14.39-8.92-38.48-23.84-59.64-44.28c-24.28-23.46-40.1-49.76-47.01-78.17
				C273,249.63,271.36,208.3,271.38,193.56c0.01-5.48,3.7-10.34,8.98-11.82c7.06-1.98,23.45-6.48,53.87-14.32
				c38.91-10.03,59.74-14.54,65.19-15.68l0,0c1.67-0.35,3.37-0.35,5.04,0c5.45,1.14,26.28,5.65,65.19,15.68
				c30.42,7.84,46.81,12.34,53.87,14.32c5.28,1.48,8.97,6.34,8.98,11.82c0.03,14.75-1.61,56.07-17.43,121.14
				c-6.91,28.41-22.72,54.71-47.01,78.17c-21.16,20.44-45.25,35.36-59.64,44.28C406.43,438.39,404.18,439.01,401.94,439.01z
				 M285.03,194.6c0.06,12.46,1.59,53.32,17.04,116.87c14.7,60.48,69.74,94.97,99.87,113.64c30.13-18.67,85.17-53.16,99.87-113.64
				c15.45-63.56,16.99-104.41,17.04-116.87c-7.49-2.09-23.64-6.51-52.6-13.97c-38-9.79-58.52-14.26-64.31-15.48
				c-5.79,1.22-26.31,5.69-64.31,15.48C308.67,188.09,292.52,192.5,285.03,194.6z"/>
		</g>
		<g>
			
				<linearGradient id="SVGID_00000140693907987129652740000003400560982135421826_" gradientUnits="userSpaceOnUse" x1="401.5781" y1="118.2359" x2="401.5781" y2="376.7157">
				<stop  offset="0" style="stop-color:#FFFFFF"/>
				<stop  offset="0.0859" style="stop-color:#C5CCE4"/>
				<stop  offset="0.1704" style="stop-color:#94A1CD"/>
				<stop  offset="0.2498" style="stop-color:#6E80BB"/>
				<stop  offset="0.3227" style="stop-color:#5368AE"/>
				<stop  offset="0.3869" style="stop-color:#4259A7"/>
				<stop  offset="0.4355" style="stop-color:#3C54A4"/>
				<stop  offset="1" style="stop-color:#292663"/>
			</linearGradient>
			<path style="fill:url(#SVGID_00000140693907987129652740000003400560982135421826_);" d="M492.59,286.14
				c-0.37,0.5-0.8,0.98-1.11,1.52c-11.72,20.12-28.16,34.99-49.56,44.23c-9.68,4.18-19.81,6.7-30.34,7.72
				c-17.28,1.69-33.94-0.76-49.94-7.4c-16.49-6.85-30.34-17.31-41.33-31.39c-3.49-4.47-6.41-9.39-9.51-14.16
				c-0.32-0.49-0.32-1.5-0.02-2.02c14.44-25.23,35.56-42.02,63.59-49.93c11.23-3.17,22.75-4.29,34.35-3.32
				c30,2.51,54.65,15.41,73.59,38.88c3.41,4.23,6.17,8.98,9.24,13.48c0.32,0.46,0.7,0.88,1.05,1.32
				C492.59,285.43,492.59,285.78,492.59,286.14z M444.65,285.58c-0.12-23.91-19.51-43.29-43.27-43.26
				c-23.8,0.03-43.18,19.44-43.24,43.29c-0.06,23.94,19.55,43.44,43.54,43.3C425.41,328.77,444.77,309.25,444.65,285.58z
				 M356.64,254.22c-0.02-0.01-0.08-0.07-0.11-0.06c-0.22,0.09-0.44,0.17-0.64,0.29c-13.11,7.49-23.8,17.55-31.99,30.24
				c-0.3,0.47-0.26,1.48,0.05,1.97c8.1,12.6,18.73,22.56,31.7,30.05c0.31,0.18,0.68,0.26,1,0.38
				C343.52,296.04,343.52,275.15,356.64,254.22z M446.45,253.79c-0.08,0.18-0.17,0.35-0.25,0.53c13.06,20.88,13.07,41.78-0.13,62.87
				c0.36-0.15,0.61-0.24,0.84-0.37c13.12-7.48,23.78-17.56,32.04-30.2c0.6-0.91,0.29-1.44-0.19-2.19
				c-5.09-7.89-11.24-14.86-18.54-20.74C455.83,260.14,451.06,257.07,446.45,253.79z"/>
			
				<linearGradient id="SVGID_00000096781393120148742760000008895065004929482408_" gradientUnits="userSpaceOnUse" x1="401.3486" y1="118.2359" x2="401.3486" y2="376.7157">
				<stop  offset="0" style="stop-color:#FFFFFF"/>
				<stop  offset="0.0859" style="stop-color:#C5CCE4"/>
				<stop  offset="0.1704" style="stop-color:#94A1CD"/>
				<stop  offset="0.2498" style="stop-color:#6E80BB"/>
				<stop  offset="0.3227" style="stop-color:#5368AE"/>
				<stop  offset="0.3869" style="stop-color:#4259A7"/>
				<stop  offset="0.4355" style="stop-color:#3C54A4"/>
				<stop  offset="1" style="stop-color:#292663"/>
			</linearGradient>
			<path style="fill:url(#SVGID_00000096781393120148742760000008895065004929482408_);" d="M402.08,263.45
				c-5.26,13.83,7.63,27.12,21.56,21.58c0.79,10.74-8.14,22.49-21.66,22.97c-12.49,0.45-23.4-10.21-22.96-22.9
				C379.54,270.27,392.48,262.5,402.08,263.45z"/>
		</g>
	</g>
	<g>
		<path class="st12" d="M427.18,282.67c-0.04,0-0.08,0-0.12,0c-1.69-0.04-3.21-0.99-3.98-2.49c-0.16-0.3-5.17-9.39-14.65-13.22
			c-2.37-0.96-3.52-3.65-2.56-6.02c0.96-2.37,3.65-3.52,6.02-2.56c6.8,2.74,11.77,7.36,14.97,11.17
			c13.94-22.59,29.03-39.05,44.94-48.99c2.17-1.35,5.02-0.7,6.37,1.47c1.35,2.17,0.7,5.02-1.47,6.37
			c-8.77,5.48-17.45,13.33-25.8,23.33c-6.8,8.14-13.43,17.77-19.73,28.62C430.35,281.78,428.83,282.67,427.18,282.67z
			 M423.08,280.18L423.08,280.18L423.08,280.18z"/>
		<path class="st13" d="M427.18,282.67c-0.04,0-0.08,0-0.12,0c-1.69-0.04-3.21-0.99-3.98-2.49c-0.16-0.3-5.17-9.39-14.65-13.22
			c-2.37-0.96-3.52-3.65-2.56-6.02c0.96-2.37,3.65-3.52,6.02-2.56c6.8,2.74,11.77,7.36,14.97,11.17
			c13.94-22.59,29.03-39.05,44.94-48.99c2.17-1.35,5.02-0.7,6.37,1.47c1.35,2.17,0.7,5.02-1.47,6.37
			c-8.77,5.48-17.45,13.33-25.8,23.33c-6.8,8.14-13.43,17.77-19.73,28.62C430.35,281.78,428.83,282.67,427.18,282.67z
			 M423.08,280.18L423.08,280.18L423.08,280.18z"/>
	</g>
</g>
<text transform="matrix(1 0 0 1 226.3799 532.6021)" class="st14 st15">CIVIC</text>
<g>
	<text transform="matrix(1 0 0 1 231.9373 604.5821)" class="st16 st17 st18">TRUST</text>
</g>
<text transform="matrix(1 0 0 1 228.5288 642.3469)" class="st16 st19">Empowering Accountability</text>
<line class="st20" x1="232.06" y1="616.2" x2="563.12" y2="617.2"/>
</svg>
