<?xml version="1.0" encoding="utf-8"?>
<!-- Generator: Adobe Illustrator 28.0.0, SVG Export Plug-In . SVG Version: 6.00 Build 0)  -->
<svg version="1.1" id="Layer_1" xmlns="http://www.w3.org/2000/svg" xmlns:xlink="http://www.w3.org/1999/xlink" x="0px" y="0px"
	 viewBox="0 0 800 800" style="enable-background:new 0 0 800 800;" xml:space="preserve">
<style type="text/css">
	.st0{fill:#FFFFFF;stroke:#FFFFFF;stroke-miterlimit:10;}
	.st1{fill:url(#SVGID_1_);}
	.st2{fill:url(#SVGID_00000066497376926212791690000006649712267783419053_);}
	.st3{fill:url(#SVGID_00000083803821795937238870000001175219539672197300_);}
	.st4{fill:url(#SVGID_00000070801085930706882610000015298290639431528372_);}
	.st5{fill:url(#SVGID_00000167393602350288436080000005508470433278194068_);}
	.st6{fill:url(#SVGID_00000090269176955173471060000018181289476469632652_);}
	.st7{fill:url(#SVGID_00000146492909869346901750000017654003410265760181_);}
	.st8{fill:url(#SVGID_00000000219876369257620530000004020160460993459365_);}
	.st9{fill:url(#SVGID_00000114764432015048923790000016697610341240113328_);}
	.st10{fill:url(#SVGID_00000050645694969664944960000011329925532590132371_);}
	.st11{fill:url(#SVGID_00000033327442866295458160000012146090942024131750_);}
	.st12{fill:url(#SVGID_00000034771078926585602160000007389677089111345808_);}
	.st13{fill:none;stroke:#FFFFFF;stroke-width:11.3386;stroke-miterlimit:10;}
	.st14{fill:#50B855;}
	.st15{fill:none;stroke:#000000;stroke-width:0.7087;stroke-miterlimit:10;}
</style>
<path class="st0" d="M702.26,565.71H97.74c-24.85,0-45-20.15-45-45V279.29c0-24.85,20.15-45,45-45h604.53c24.85,0,45,20.15,45,45
	v241.41C747.26,545.56,727.12,565.71,702.26,565.71z"/>
<g>
	<linearGradient id="SVGID_1_" gradientUnits="userSpaceOnUse" x1="1129.1083" y1="-33.2282" x2="949.0767" y2="236.0371">
		<stop  offset="0" style="stop-color:#FFFFFF"/>
		<stop  offset="0.0859" style="stop-color:#C5CCE4"/>
		<stop  offset="0.1704" style="stop-color:#94A1CD"/>
		<stop  offset="0.2498" style="stop-color:#6E80BB"/>
		<stop  offset="0.3227" style="stop-color:#5368AE"/>
		<stop  offset="0.3869" style="stop-color:#4259A7"/>
		<stop  offset="0.4355" style="stop-color:#3C54A4"/>
		<stop  offset="1" style="stop-color:#292663"/>
	</linearGradient>
	<path class="st1" d="M1118.37,56.83c-5.93,4.43-11.64,8.95-17.18,13.53c-26.32-14.59-17.26-9.57-40.33-22.36
		c-34.95,19.68-79.42,44.71-116.22,65.43c-0.24,62.75,14.55,128.29,53.59,178.34c4.25-75.06,45.54-148.98,93.87-206.37
		C1103.32,72.09,1113.61,61.35,1118.37,56.83z M980.9,224.84c-11.41-29.97-17.76-64.14-18.61-101.2l98.63-55.53l26.09,14.47
		C1035.28,129.09,1002.01,180.85,980.9,224.84z"/>
	
		<linearGradient id="SVGID_00000020365504311090742850000005944894405119178899_" gradientUnits="userSpaceOnUse" x1="1218.8826" y1="-16.1334" x2="1005.1917" y2="329.8428">
		<stop  offset="0" style="stop-color:#FFFFFF"/>
		<stop  offset="4.556144e-03" style="stop-color:#F4F4F4"/>
		<stop  offset="0.0224" style="stop-color:#CDCECF"/>
		<stop  offset="0.0416" style="stop-color:#ACADAF"/>
		<stop  offset="0.0621" style="stop-color:#929294"/>
		<stop  offset="0.0844" style="stop-color:#7D7E80"/>
		<stop  offset="0.1093" style="stop-color:#6E6F72"/>
		<stop  offset="0.1391" style="stop-color:#66676A"/>
		<stop  offset="0.1863" style="stop-color:#636467"/>
		<stop  offset="0.2492" style="stop-color:#5D5E60"/>
		<stop  offset="0.4618" style="stop-color:#4C4B4D"/>
		<stop  offset="0.6628" style="stop-color:#3F3E40"/>
		<stop  offset="0.8459" style="stop-color:#383738"/>
		<stop  offset="0.9946" style="stop-color:#363435"/>
	</linearGradient>
	<path style="fill:url(#SVGID_00000020365504311090742850000005944894405119178899_);" d="M1110.11,95.38
		c14.97-26,30.87-46.65,38.83-55.07c-76.28,67.09-121.64,167.29-136.62,267.7c11.71,12.11,25.36,22.97,40.58,31.57
		C1047.97,250.53,1069.35,166.16,1110.11,95.38z"/>
	
		<linearGradient id="SVGID_00000125597984708285755260000012999760610787017146_" gradientUnits="userSpaceOnUse" x1="1196.9949" y1="14.4935" x2="1096.0208" y2="275.1482">
		<stop  offset="0" style="stop-color:#FFFFFF"/>
		<stop  offset="0.0859" style="stop-color:#C5CCE4"/>
		<stop  offset="0.1704" style="stop-color:#94A1CD"/>
		<stop  offset="0.2498" style="stop-color:#6E80BB"/>
		<stop  offset="0.3227" style="stop-color:#5368AE"/>
		<stop  offset="0.3869" style="stop-color:#4259A7"/>
		<stop  offset="0.4355" style="stop-color:#3C54A4"/>
		<stop  offset="1" style="stop-color:#292663"/>
	</linearGradient>
	<path style="fill:url(#SVGID_00000125597984708285755260000012999760610787017146_);" d="M1130.75,86.76
		c4.75-12.36,8.19-19.41,8.19-19.41c-54.33,76.74-72,177.31-64.33,271.13c75.69-44.04,106.46-135.95,106.37-223.88
		C1159.35,102.61,1164.7,105.58,1130.75,86.76z M1107.75,288.04c-13.82-72.78,3.19-143.52,16.99-184.55l38.55,21.38
		C1161.55,191.08,1142.24,248.01,1107.75,288.04z"/>
</g>
<g>
	
		<linearGradient id="SVGID_00000137103091974848646010000007107456234964650886_" gradientUnits="userSpaceOnUse" x1="988.3015" y1="422.3062" x2="1234.7861" y2="80.5732">
		<stop  offset="0" style="stop-color:#FFFFFF"/>
		<stop  offset="0.0859" style="stop-color:#C5CCE4"/>
		<stop  offset="0.1704" style="stop-color:#94A1CD"/>
		<stop  offset="0.2498" style="stop-color:#6E80BB"/>
		<stop  offset="0.3227" style="stop-color:#5368AE"/>
		<stop  offset="0.3869" style="stop-color:#4259A7"/>
		<stop  offset="0.4355" style="stop-color:#3C54A4"/>
		<stop  offset="1" style="stop-color:#292663"/>
	</linearGradient>
	<path style="fill:url(#SVGID_00000137103091974848646010000007107456234964650886_);" d="M1120.58,361.81
		c-42.6-56.28-51.55-125.63-51.45-174.46l115.05-64.77l40.46,22.43c1.17-0.97,2.54-2.1,4.46-3.65
		C1174.75,200.22,1126.22,281.42,1120.58,361.81z M1084.43,196.18c0.88,37.43,6.56,70.43,19.67,104.85
		c28.25-58.86,63.36-105.1,108.25-145.46l-28.11-15.58L1084.43,196.18z"/>
</g>
<g>
	
		<linearGradient id="SVGID_00000160157313833385261290000003178236211630788022_" gradientUnits="userSpaceOnUse" x1="1104.2842" y1="439.7194" x2="1324.5503" y2="87.294">
		<stop  offset="0" style="stop-color:#FFFFFF"/>
		<stop  offset="4.556144e-03" style="stop-color:#F4F4F4"/>
		<stop  offset="0.0224" style="stop-color:#CDCECF"/>
		<stop  offset="0.0416" style="stop-color:#ACADAF"/>
		<stop  offset="0.0621" style="stop-color:#929294"/>
		<stop  offset="0.0844" style="stop-color:#7D7E80"/>
		<stop  offset="0.1093" style="stop-color:#6E6F72"/>
		<stop  offset="0.1391" style="stop-color:#66676A"/>
		<stop  offset="0.1863" style="stop-color:#636467"/>
		<stop  offset="0.2492" style="stop-color:#5D5E60"/>
		<stop  offset="0.4618" style="stop-color:#4C4B4D"/>
		<stop  offset="0.6628" style="stop-color:#3F3E40"/>
		<stop  offset="0.8459" style="stop-color:#383738"/>
		<stop  offset="0.9946" style="stop-color:#363435"/>
	</linearGradient>
	<path style="fill:url(#SVGID_00000160157313833385261290000003178236211630788022_);" d="M1174.94,410.72
		c-13.74-7.99-26.53-18.04-38.05-29.88c14.08-93.67,54.82-187.73,122.93-254.17C1204.19,199.49,1169.38,300.98,1174.94,410.72z"/>
</g>
<g>
	
		<linearGradient id="SVGID_00000097458091383007688820000014901110371549041041_" gradientUnits="userSpaceOnUse" x1="1151.0193" y1="447.5298" x2="1325.3788" y2="126.8856">
		<stop  offset="0" style="stop-color:#292663"/>
		<stop  offset="0.5645" style="stop-color:#3C54A4"/>
		<stop  offset="0.6131" style="stop-color:#4259A7"/>
		<stop  offset="0.6773" style="stop-color:#5368AE"/>
		<stop  offset="0.7502" style="stop-color:#6E80BB"/>
		<stop  offset="0.8296" style="stop-color:#94A1CD"/>
		<stop  offset="0.9141" style="stop-color:#C5CCE4"/>
		<stop  offset="1" style="stop-color:#FFFFFF"/>
	</linearGradient>
	<path style="fill:url(#SVGID_00000097458091383007688820000014901110371549041041_);" d="M1198.96,409.75
		c-7.67-98.11,12.53-189.04,57.08-257.89c-1.29,3.14-2.3,5.71-3.43,8.66l50.52,28.01C1303.07,275.13,1272.66,365.78,1198.96,409.75z
		 M1230.38,363.88c39.76-46.14,55.84-104.58,57.43-166.47l-40.41-22.4C1226.52,237.05,1218.37,300.62,1230.38,363.88z"/>
</g>
<g>
	<g>
		
			<linearGradient id="SVGID_00000135665491146194527470000010756737062996582562_" gradientUnits="userSpaceOnUse" x1="992.0945" y1="539.5036" x2="1007.7498" y2="356.3402">
			<stop  offset="0" style="stop-color:#FFFFFF"/>
			<stop  offset="0.0859" style="stop-color:#C5CCE4"/>
			<stop  offset="0.1704" style="stop-color:#94A1CD"/>
			<stop  offset="0.2498" style="stop-color:#6E80BB"/>
			<stop  offset="0.3227" style="stop-color:#5368AE"/>
			<stop  offset="0.3869" style="stop-color:#4259A7"/>
			<stop  offset="0.4355" style="stop-color:#3C54A4"/>
			<stop  offset="1" style="stop-color:#292663"/>
		</linearGradient>
		<path style="fill:url(#SVGID_00000135665491146194527470000010756737062996582562_);" d="M944.35,523.06
			c-4.56-20.54-6.83-41.41-7.36-63.88l99.81-56.19l28.11,15.58c-33.9,30.49-62.23,64.33-86.23,104.43
			c7.46-0.01,14.92-0.02,22.38-0.02c20.34-43.96,49.51-84.95,80.61-118.63c-1.92,1.55-3.29,2.68-4.46,3.65l-40.46-22.43
			L921.7,450.34c-0.04,21.28,1.63,46.46,7.06,72.76C933.96,523.08,939.15,523.07,944.35,523.06z"/>
	</g>
	<g>
		
			<linearGradient id="SVGID_00000039130805734455519800000013486730846415008409_" gradientUnits="userSpaceOnUse" x1="1053.9534" y1="548.1876" x2="1082.1326" y2="361.8924">
			<stop  offset="0" style="stop-color:#FFFFFF"/>
			<stop  offset="4.556144e-03" style="stop-color:#F4F4F4"/>
			<stop  offset="0.0224" style="stop-color:#CDCECF"/>
			<stop  offset="0.0416" style="stop-color:#ACADAF"/>
			<stop  offset="0.0621" style="stop-color:#929294"/>
			<stop  offset="0.0844" style="stop-color:#7D7E80"/>
			<stop  offset="0.1093" style="stop-color:#6E6F72"/>
			<stop  offset="0.1391" style="stop-color:#66676A"/>
			<stop  offset="0.1863" style="stop-color:#636467"/>
			<stop  offset="0.2492" style="stop-color:#5D5E60"/>
			<stop  offset="0.4618" style="stop-color:#4C4B4D"/>
			<stop  offset="0.6628" style="stop-color:#3F3E40"/>
			<stop  offset="0.8459" style="stop-color:#383738"/>
			<stop  offset="0.9946" style="stop-color:#363435"/>
		</linearGradient>
		<path style="fill:url(#SVGID_00000039130805734455519800000013486730846415008409_);" d="M1045.44,522.98
			c15.24-51,39.54-97.44,66.94-133.31c-38.3,37.36-67.94,83.46-89.06,133.31C1030.69,522.97,1038.07,522.97,1045.44,522.98z"/>
	</g>
	<g>
		
			<linearGradient id="SVGID_00000003083315797744649100000004460362622479566767_" gradientUnits="userSpaceOnUse" x1="1110.9849" y1="405.139" x2="1107.8536" y2="556.9933">
			<stop  offset="0" style="stop-color:#292663"/>
			<stop  offset="0.4946" style="stop-color:#3C54A4"/>
			<stop  offset="0.7473" style="stop-color:#9CA8D1"/>
			<stop  offset="1" style="stop-color:#FFFFFF"/>
		</linearGradient>
		<path style="fill:url(#SVGID_00000003083315797744649100000004460362622479566767_);" d="M1062.81,522.98
			c5.78,0,11.56,0,17.33,0.01c3.55-28.53,10.38-56.91,19.82-84.99l40.41,22.4c-0.54,20.99-2.84,42.1-7.29,62.62
			c5.16,0,10.31,0.01,15.47,0.01c4.69-22.49,7.13-46.46,7.15-71.52l-50.52-28.01c1.13-2.94,2.14-5.52,3.43-8.66
			C1088.02,446.67,1072.65,483.21,1062.81,522.98z"/>
	</g>
</g>
<g>
	<g>
		<g>
			<g>
				
					<linearGradient id="SVGID_00000132774385266501593790000018120581490258731954_" gradientUnits="userSpaceOnUse" x1="218.5627" y1="222.9979" x2="218.5627" y2="481.4777">
					<stop  offset="0" style="stop-color:#FFFFFF"/>
					<stop  offset="0.0859" style="stop-color:#C5CCE4"/>
					<stop  offset="0.1704" style="stop-color:#94A1CD"/>
					<stop  offset="0.2498" style="stop-color:#6E80BB"/>
					<stop  offset="0.3227" style="stop-color:#5368AE"/>
					<stop  offset="0.3869" style="stop-color:#4259A7"/>
					<stop  offset="0.4355" style="stop-color:#3C54A4"/>
					<stop  offset="1" style="stop-color:#292663"/>
				</linearGradient>
				<path style="fill:url(#SVGID_00000132774385266501593790000018120581490258731954_);" d="M218.56,543.77
					c-2.24,0-4.48-0.62-6.48-1.86c-14.39-8.92-38.48-23.84-59.64-44.28c-24.28-23.46-40.1-49.76-47.01-78.17
					c-15.82-65.06-17.46-106.39-17.43-121.14c0.01-5.48,3.7-10.34,8.98-11.82c7.06-1.98,23.45-6.48,53.87-14.32
					c38.91-10.03,59.74-14.54,65.19-15.68l0,0c1.67-0.35,3.37-0.35,5.04,0c5.45,1.14,26.28,5.65,65.19,15.68
					c30.42,7.84,46.81,12.34,53.87,14.32c5.28,1.48,8.97,6.34,8.98,11.82c0.03,14.75-1.61,56.07-17.43,121.14
					c-6.91,28.41-22.72,54.71-47.01,78.17c-21.16,20.44-45.25,35.36-59.64,44.28C223.05,543.15,220.8,543.77,218.56,543.77z
					 M101.65,299.36c0.06,12.46,1.59,53.32,17.04,116.87c14.7,60.48,69.74,94.97,99.87,113.64c30.13-18.67,85.17-53.16,99.87-113.64
					c15.45-63.56,16.99-104.41,17.04-116.87c-7.49-2.09-23.64-6.51-52.6-13.97c-38-9.79-58.52-14.26-64.31-15.48
					c-5.79,1.22-26.31,5.69-64.31,15.48C125.29,292.85,109.14,297.27,101.65,299.36z"/>
			</g>
			<g>
				
					<linearGradient id="SVGID_00000097492622711874398540000016092830222508198059_" gradientUnits="userSpaceOnUse" x1="218.1987" y1="222.9979" x2="218.1987" y2="481.4777">
					<stop  offset="0" style="stop-color:#FFFFFF"/>
					<stop  offset="0.0859" style="stop-color:#C5CCE4"/>
					<stop  offset="0.1704" style="stop-color:#94A1CD"/>
					<stop  offset="0.2498" style="stop-color:#6E80BB"/>
					<stop  offset="0.3227" style="stop-color:#5368AE"/>
					<stop  offset="0.3869" style="stop-color:#4259A7"/>
					<stop  offset="0.4355" style="stop-color:#3C54A4"/>
					<stop  offset="1" style="stop-color:#292663"/>
				</linearGradient>
				<path style="fill:url(#SVGID_00000097492622711874398540000016092830222508198059_);" d="M309.21,390.9
					c-0.37,0.5-0.8,0.98-1.11,1.52c-11.72,20.12-28.16,34.99-49.56,44.23c-9.68,4.18-19.81,6.7-30.34,7.72
					c-17.28,1.69-33.94-0.76-49.94-7.4c-16.49-6.85-30.34-17.31-41.33-31.39c-3.49-4.47-6.41-9.39-9.51-14.16
					c-0.32-0.49-0.32-1.5-0.02-2.02c14.44-25.23,35.56-42.02,63.59-49.93c11.23-3.17,22.75-4.29,34.35-3.32
					c30,2.51,54.65,15.41,73.59,38.88c3.41,4.23,6.17,8.98,9.24,13.48c0.32,0.46,0.7,0.88,1.05,1.32
					C309.21,390.19,309.21,390.54,309.21,390.9z M261.27,390.34c-0.12-23.91-19.51-43.29-43.27-43.26
					c-23.8,0.03-43.18,19.44-43.24,43.29c-0.06,23.94,19.55,43.44,43.54,43.3C242.03,433.54,261.39,414.01,261.27,390.34z
					 M173.26,358.98c-0.02-0.01-0.08-0.07-0.11-0.06c-0.22,0.09-0.44,0.17-0.64,0.29c-13.11,7.49-23.8,17.55-31.99,30.24
					c-0.3,0.47-0.26,1.48,0.05,1.97c8.1,12.6,18.73,22.56,31.7,30.05c0.31,0.18,0.68,0.26,1,0.38
					C160.14,400.81,160.14,379.91,173.26,358.98z M263.07,358.55c-0.08,0.18-0.17,0.35-0.25,0.53
					c13.06,20.88,13.07,41.78-0.13,62.87c0.36-0.15,0.61-0.24,0.84-0.37c13.12-7.48,23.78-17.56,32.04-30.2
					c0.6-0.91,0.29-1.44-0.19-2.19c-5.09-7.89-11.24-14.86-18.54-20.74C272.45,364.9,267.68,361.83,263.07,358.55z"/>
				
					<linearGradient id="SVGID_00000054974867971620154720000006216505811463271583_" gradientUnits="userSpaceOnUse" x1="217.9691" y1="222.9979" x2="217.9691" y2="481.4777">
					<stop  offset="0" style="stop-color:#FFFFFF"/>
					<stop  offset="0.0859" style="stop-color:#C5CCE4"/>
					<stop  offset="0.1704" style="stop-color:#94A1CD"/>
					<stop  offset="0.2498" style="stop-color:#6E80BB"/>
					<stop  offset="0.3227" style="stop-color:#5368AE"/>
					<stop  offset="0.3869" style="stop-color:#4259A7"/>
					<stop  offset="0.4355" style="stop-color:#3C54A4"/>
					<stop  offset="1" style="stop-color:#292663"/>
				</linearGradient>
				<path style="fill:url(#SVGID_00000054974867971620154720000006216505811463271583_);" d="M218.7,368.21
					c-5.26,13.83,7.63,27.12,21.56,21.58c0.79,10.74-8.14,22.49-21.66,22.97c-12.49,0.45-23.4-10.21-22.96-22.9
					C196.16,375.03,209.1,367.26,218.7,368.21z"/>
			</g>
		</g>
		<g>
			<path class="st13" d="M243.8,387.43c-0.04,0-0.08,0-0.12,0c-1.69-0.04-3.21-0.99-3.98-2.49c-0.16-0.3-5.17-9.39-14.65-13.22
				c-2.37-0.96-3.52-3.65-2.56-6.02c0.96-2.37,3.65-3.52,6.02-2.56c6.8,2.74,11.77,7.36,14.97,11.17
				c13.94-22.59,29.03-39.05,44.94-48.99c2.17-1.35,5.02-0.7,6.37,1.47c1.35,2.17,0.7,5.02-1.47,6.37
				c-8.77,5.48-17.45,13.33-25.8,23.33c-6.8,8.14-13.43,17.77-19.73,28.62C246.97,386.54,245.45,387.43,243.8,387.43z M239.7,384.94
				L239.7,384.94L239.7,384.94z"/>
			<path class="st14" d="M243.8,387.43c-0.04,0-0.08,0-0.12,0c-1.69-0.04-3.21-0.99-3.98-2.49c-0.16-0.3-5.17-9.39-14.65-13.22
				c-2.37-0.96-3.52-3.65-2.56-6.02c0.96-2.37,3.65-3.52,6.02-2.56c6.8,2.74,11.77,7.36,14.97,11.17
				c13.94-22.59,29.03-39.05,44.94-48.99c2.17-1.35,5.02-0.7,6.37,1.47c1.35,2.17,0.7,5.02-1.47,6.37
				c-8.77,5.48-17.45,13.33-25.8,23.33c-6.8,8.14-13.43,17.77-19.73,28.62C246.97,386.54,245.45,387.43,243.8,387.43z M239.7,384.94
				L239.7,384.94L239.7,384.94z"/>
		</g>
	</g>
	<g>
		<g>
			<path d="M379.7,350.96c0-25.11,19.28-43.08,45.22-43.08c14.4,0,26.42,5.24,34.27,14.76l-12.38,11.42
				c-5.59-6.43-12.61-9.76-20.94-9.76c-15.59,0-26.66,10.95-26.66,26.66c0,15.71,11.07,26.66,26.66,26.66
				c8.33,0,15.35-3.33,20.94-9.88l12.38,11.42c-7.85,9.64-19.87,14.88-34.39,14.88C398.97,394.04,379.7,376.07,379.7,350.96z"/>
			<path d="M472.16,309.31h19.28v83.3h-19.28V309.31z"/>
			<path d="M590.8,309.31l-36.06,83.3H535.7l-35.94-83.3h20.83l25.35,59.5l25.71-59.5H590.8z"/>
			<path d="M597.7,309.31h19.28v83.3H597.7V309.31z"/>
			<path d="M631.49,350.96c0-25.11,19.28-43.08,45.22-43.08c14.4,0,26.42,5.24,34.27,14.76l-12.38,11.42
				c-5.59-6.43-12.61-9.76-20.94-9.76c-15.59,0-26.66,10.95-26.66,26.66c0,15.71,11.07,26.66,26.66,26.66
				c8.33,0,15.35-3.33,20.94-9.88l12.38,11.42c-7.85,9.64-19.87,14.88-34.39,14.88C650.77,394.04,631.49,376.07,631.49,350.96z"/>
		</g>
		<g>
			<g>
				<path d="M401.25,411.86h-20.32v-3.71h44.75v3.71h-20.32v52.73h-4.11V411.86z"/>
				<path d="M492.44,464.59l-13.46-18.87c-1.77,0.24-3.55,0.4-5.48,0.4h-16.12v18.46h-4.11v-56.44h20.24
					c14.19,0,22.74,7.1,22.74,19.03c0,8.95-4.84,15.16-13.22,17.66l14.11,19.75H492.44z M473.49,442.5
					c12.09,0,18.54-5.64,18.54-15.32c0-9.76-6.45-15.32-18.54-15.32h-16.12v30.64H473.49z"/>
				<path d="M528.23,440.64v-32.49h4.11v32.33c0,14.11,6.77,20.72,18.54,20.72s18.46-6.61,18.46-20.72v-32.33h4.11v32.49
					c0,16.12-8.63,24.35-22.66,24.35S528.23,456.77,528.23,440.64z"/>
				<path d="M604.34,457.33l1.85-3.06c3.87,4.03,11.05,7.09,18.62,7.09c11.29,0,16.29-4.92,16.29-11.05
					c0-16.93-35.23-6.77-35.23-27.57c0-7.98,6.13-15,20-15c6.21,0,12.66,1.94,17.01,5.08l-1.53,3.31
					c-4.68-3.23-10.4-4.76-15.48-4.76c-10.97,0-15.88,5.08-15.88,11.29c0,16.93,35.23,6.93,35.23,27.41
					c0,7.98-6.37,14.92-20.32,14.92C616.52,464.99,608.45,461.85,604.34,457.33z"/>
				<path d="M686.58,411.86h-20.32v-3.71h44.75v3.71h-20.32v52.73h-4.11V411.86z"/>
			</g>
		</g>
		<g>
			<path d="M391.53,501.27v1.09h-11.44v-16.58h11.08v1.09h-9.88v6.54h8.83v1.07h-8.83v6.8H391.53z"/>
			<path d="M416.19,495.13v7.22H415v-7.13c0-2.79-1.45-4.26-3.86-4.26c-2.79,0-4.52,1.87-4.52,4.81v6.58h-1.18v-7.13
				c0-2.79-1.44-4.26-3.86-4.26c-2.79,0-4.52,1.87-4.52,4.81v6.58h-1.18v-12.36H397v2.65c0.81-1.73,2.49-2.75,4.74-2.75
				c2.23,0,3.86,1.02,4.52,2.98c0.81-1.8,2.61-2.98,5-2.98C414.25,489.9,416.19,491.67,416.19,495.13z"/>
			<path d="M433.69,496.17c0,3.72-2.63,6.28-6.11,6.28c-2.18,0-4.03-1.07-5.02-2.91v7.41h-1.18v-16.96h1.14v2.91
				c0.97-1.89,2.84-3.01,5.07-3.01C431.06,489.9,433.69,492.48,433.69,496.17z M432.51,496.17c0-3.1-2.16-5.21-5-5.21
				s-4.97,2.11-4.97,5.21s2.13,5.21,4.97,5.21S432.51,499.28,432.51,496.17z"/>
			<path d="M436.33,496.17c0-3.67,2.63-6.28,6.18-6.28c3.55,0,6.18,2.61,6.18,6.28s-2.63,6.28-6.18,6.28
				C438.96,502.45,436.33,499.85,436.33,496.17z M447.48,496.17c0-3.1-2.13-5.21-4.97-5.21s-4.97,2.11-4.97,5.21
				s2.13,5.21,4.97,5.21S447.48,499.28,447.48,496.17z"/>
			<path d="M469.98,489.99l-4.69,12.36h-1.11l-4.17-10.73l-4.19,10.73h-1.09l-4.69-12.36h1.14l4.12,11.04l4.21-11.04h1.02
				l4.19,11.01l4.17-11.01H469.98z"/>
			<path d="M483.13,496.46H472.5c0.12,2.94,2.27,4.93,5.23,4.93c1.56,0,3.01-0.57,3.96-1.73l0.69,0.78
				c-1.09,1.33-2.79,2.01-4.67,2.01c-3.74,0-6.37-2.6-6.37-6.28s2.53-6.28,5.92-6.28s5.9,2.56,5.9,6.23
				C483.15,496.22,483.13,496.34,483.13,496.46z M472.52,495.54h9.47c-0.17-2.68-2.11-4.59-4.74-4.59S472.71,492.84,472.52,495.54z"
				/>
			<path d="M492.98,489.9v1.16c-0.09,0-0.19-0.02-0.28-0.02c-2.75,0-4.38,1.82-4.38,4.88v6.44h-1.18v-12.36h1.14v2.7
				C489.03,490.89,490.66,489.9,492.98,489.9z"/>
			<path d="M496.18,486.04c0-0.52,0.43-0.97,0.97-0.97c0.54,0,0.97,0.43,0.97,0.95c0,0.54-0.43,0.97-0.97,0.97
				C496.61,486.99,496.18,486.56,496.18,486.04z M496.56,489.99h1.18v12.36h-1.18V489.99z"/>
			<path d="M514.11,495.13v7.22h-1.18v-7.13c0-2.79-1.49-4.26-4-4.26c-2.91,0-4.69,1.87-4.69,4.81v6.58h-1.18v-12.36h1.14v2.68
				c0.83-1.73,2.56-2.77,4.9-2.77C512.1,489.9,514.11,491.67,514.11,495.13z"/>
			<path d="M530.46,489.99v11.04c0,4.14-2.01,6.02-5.99,6.02c-2.25,0-4.41-0.71-5.66-1.97l0.64-0.9c1.23,1.14,3.01,1.8,5,1.8
				c3.29,0,4.83-1.52,4.83-4.81v-2.08c-1.02,1.8-2.91,2.82-5.14,2.82c-3.5,0-6.16-2.49-6.16-6.01c0-3.53,2.65-5.99,6.16-5.99
				c2.27,0,4.19,1.04,5.19,2.89v-2.79H530.46z M529.3,495.89c0-2.91-2.13-4.93-5.07-4.93c-2.91,0-5.04,2.01-5.04,4.93
				c0,2.91,2.13,4.95,5.04,4.95C527.16,500.84,529.3,498.8,529.3,495.89z"/>
			<path d="M552.82,497.69h-9.61l-2.11,4.67h-1.3l7.62-16.58h1.21l7.62,16.58h-1.3L552.82,497.69z M552.37,496.67l-4.36-9.57
				l-4.33,9.57H552.37z"/>
			<path d="M557.72,496.17c0-3.69,2.63-6.28,6.25-6.28c1.97,0,3.67,0.76,4.69,2.27l-0.88,0.64c-0.9-1.25-2.27-1.85-3.81-1.85
				c-2.91,0-5.04,2.08-5.04,5.21s2.13,5.21,5.04,5.21c1.54,0,2.91-0.59,3.81-1.85l0.88,0.64c-1.02,1.49-2.72,2.27-4.69,2.27
				C560.35,502.45,557.72,499.85,557.72,496.17z"/>
			<path d="M570.96,496.17c0-3.69,2.63-6.28,6.25-6.28c1.97,0,3.67,0.76,4.69,2.27l-0.88,0.64c-0.9-1.25-2.27-1.85-3.81-1.85
				c-2.91,0-5.04,2.08-5.04,5.21s2.13,5.21,5.04,5.21c1.54,0,2.91-0.59,3.81-1.85l0.88,0.64c-1.02,1.49-2.72,2.27-4.69,2.27
				C573.59,502.45,570.96,499.85,570.96,496.17z"/>
			<path d="M584.21,496.17c0-3.67,2.63-6.28,6.18-6.28c3.55,0,6.18,2.61,6.18,6.28s-2.63,6.28-6.18,6.28
				C586.83,502.45,584.21,499.85,584.21,496.17z M595.36,496.17c0-3.1-2.13-5.21-4.97-5.21s-4.97,2.11-4.97,5.21
				s2.13,5.21,4.97,5.21S595.36,499.28,595.36,496.17z"/>
			<path d="M611.37,489.99v12.36h-1.14v-2.65c-0.81,1.73-2.49,2.75-4.67,2.75c-3.15,0-5.16-1.78-5.16-5.23v-7.22h1.18v7.13
				c0,2.79,1.49,4.26,4.07,4.26c2.79,0,4.52-1.87,4.52-4.81v-6.58H611.37z"/>
			<path d="M627.76,495.13v7.22h-1.18v-7.13c0-2.79-1.49-4.26-4-4.26c-2.91,0-4.69,1.87-4.69,4.81v6.58h-1.18v-12.36h1.14v2.68
				c0.83-1.73,2.56-2.77,4.9-2.77C625.75,489.9,627.76,491.67,627.76,495.13z"/>
			<path d="M639.09,501.57c-0.62,0.59-1.61,0.88-2.53,0.88c-2.18,0-3.36-1.28-3.36-3.36v-8.08h-2.27v-1.02h2.27v-2.7h1.18v2.7h3.93
				v1.02h-3.93v7.96c0,1.59,0.78,2.46,2.3,2.46c0.73,0,1.42-0.24,1.92-0.69L639.09,501.57z"/>
			<path d="M651.62,494.52v7.84h-1.14v-2.2c-0.78,1.42-2.3,2.3-4.45,2.3c-2.77,0-4.45-1.42-4.45-3.53c0-1.87,1.18-3.46,4.62-3.46
				h4.24v-0.99c0-2.3-1.25-3.53-3.67-3.53c-1.71,0-3.24,0.64-4.26,1.56l-0.59-0.85c1.23-1.09,3.03-1.75,4.95-1.75
				C649.91,489.9,651.62,491.46,651.62,494.52z M650.43,498.71v-2.32h-4.21c-2.56,0-3.46,1.07-3.46,2.49c0,1.61,1.26,2.61,3.43,2.61
				C648.28,501.48,649.72,500.48,650.43,498.71z"/>
			<path d="M669.12,496.17c0,3.69-2.63,6.28-6.11,6.28c-2.23,0-4.1-1.11-5.07-3.01v2.91h-1.14v-17.57h1.18v8.03
				c1-1.85,2.84-2.91,5.02-2.91C666.49,489.9,669.12,492.46,669.12,496.17z M667.94,496.17c0-3.1-2.16-5.21-5-5.21
				s-4.97,2.11-4.97,5.21s2.13,5.21,4.97,5.21S667.94,499.28,667.94,496.17z"/>
			<path d="M672.72,486.04c0-0.52,0.43-0.97,0.97-0.97c0.54,0,0.97,0.43,0.97,0.95c0,0.54-0.43,0.97-0.97,0.97
				C673.15,486.99,672.72,486.56,672.72,486.04z M673.1,489.99h1.18v12.36h-1.18V489.99z"/>
			<path d="M679.59,484.78h1.18v17.57h-1.18V484.78z"/>
			<path d="M685.71,486.04c0-0.52,0.43-0.97,0.97-0.97s0.97,0.43,0.97,0.95c0,0.54-0.43,0.97-0.97,0.97S685.71,486.56,685.71,486.04
				z M686.08,489.99h1.18v12.36h-1.18V489.99z"/>
			<path d="M698.71,501.57c-0.62,0.59-1.61,0.88-2.53,0.88c-2.18,0-3.36-1.28-3.36-3.36v-8.08h-2.27v-1.02h2.27v-2.7h1.18v2.7h3.93
				v1.02h-3.93v7.96c0,1.59,0.78,2.46,2.3,2.46c0.73,0,1.42-0.24,1.92-0.69L698.71,501.57z"/>
			<path d="M712,489.99l-6.35,14.04c-0.99,2.27-2.23,3.01-3.86,3.01c-1.11,0-2.16-0.38-2.87-1.11l0.59-0.9
				c0.64,0.66,1.37,0.97,2.3,0.97c1.14,0,1.96-0.52,2.72-2.2l0.66-1.49l-5.57-12.31h1.25l4.95,11.06l4.95-11.06H712z"/>
		</g>
		<line class="st15" x1="380.73" y1="476.2" x2="711.79" y2="477.2"/>
	</g>
</g>
</svg>
